<?xml version="1.0" standalone="no"?>
<!DOCTYPE svg PUBLIC "-//W3C//DTD SVG 20010904//EN"
 "http://www.w3.org/TR/2001/REC-SVG-20010904/DTD/svg10.dtd">
<svg version="1.0" xmlns="http://www.w3.org/2000/svg"
 width="505.000000pt" height="505.000000pt" viewBox="0 0 505.000000 505.000000"
 preserveAspectRatio="xMidYMid meet">
<metadata>
Created by potrace 1.14, written by Peter Selinger 2001-2017
</metadata>
<g transform="translate(0.000000,505.000000) scale(0.100000,-0.100000)"
fill="#000000" stroke="none">
<path d="M0 4195 c0 -769 2 -855 16 -855 8 0 36 9 62 19 94 39 211 74 228 67
16 -6 15 -8 -5 -29 -26 -28 -100 -52 -204 -66 -43 -6 -83 -11 -88 -11 -6 0 -9
-197 -9 -510 l1 -510 37 25 c57 39 62 30 10 -18 l-48 -43 0 -1132 0 -1132 969
0 968 0 19 25 c10 14 24 25 30 25 15 0 72 -29 79 -41 8 -12 155 -12 155 0 0 6
-4 13 -10 16 -12 8 -13 25 -2 25 5 0 14 -11 20 -25 l12 -25 209 0 209 0 -5 23
-5 22 16 -22 17 -23 525 0 c313 0 524 4 524 9 0 5 -18 25 -40 44 -22 19 -40
39 -40 45 0 6 -6 12 -12 15 -7 2 -10 8 -6 12 4 4 36 -22 71 -57 66 -64 71 -66
145 -59 7 1 12 16 12 41 0 33 3 40 20 40 17 0 20 -7 20 -39 0 -29 -5 -41 -17
-44 -10 -3 249 -5 575 -6 l592 -1 0 96 0 96 -27 -4 c-16 -3 -36 -9 -45 -13
-15 -6 -18 -2 -18 19 0 14 -5 26 -10 26 -6 0 -15 12 -20 26 -8 21 -15 25 -35
22 -15 -3 -22 -1 -18 5 4 6 0 8 -11 4 -10 -4 -23 -7 -29 -7 -7 0 -4 -5 6 -11
9 -5 17 -18 17 -29 0 -20 -44 -60 -65 -60 -7 0 -15 -7 -19 -15 -9 -25 -25 -17
-44 22 -22 48 -47 73 -72 73 -11 0 -20 5 -20 10 0 16 -30 12 -36 -5 -4 -8 -10
-13 -14 -10 -5 3 -12 0 -16 -6 -5 -8 -9 -7 -15 2 -6 11 -11 11 -26 -1 -35 -29
-63 -40 -98 -40 -24 0 -35 -5 -35 -15 0 -10 -8 -6 -25 10 -16 17 -36 25 -62
26 -21 1 -78 2 -128 3 -90 1 -101 4 -225 66 -10 4 -17 28 -20 66 -6 61 -23
104 -41 104 -6 0 -24 9 -39 20 l-28 20 5 -20 c5 -19 1 -20 -60 -18 -56 1 -63
3 -49 14 10 8 12 13 5 14 -15 0 -63 44 -63 58 0 12 -24 22 -54 22 -20 0 -22 4
-19 32 l4 33 -17 -32 c-9 -18 -20 -33 -24 -33 -11 0 -8 34 4 42 6 4 7 11 2 15
-4 4 -13 0 -20 -10 -7 -9 -18 -17 -25 -17 -6 0 -11 -4 -11 -10 0 -5 5 -10 10
-10 6 0 10 -5 10 -12 0 -9 -3 -9 -12 0 -16 16 -28 15 -28 -3 0 -9 -9 -15 -21
-15 -23 0 -28 -6 60 85 30 31 70 63 89 70 19 8 32 20 30 27 -3 7 -99 67 -214
133 -115 67 -245 145 -289 175 l-79 55 56 6 c85 9 140 55 182 152 28 63 34 93
12 64 -13 -16 -14 -16 -19 4 -3 11 -10 18 -16 14 -6 -3 -11 1 -11 9 0 9 -8 16
-17 16 -14 0 -15 2 -4 9 9 6 10 11 2 15 -7 5 -7 13 -2 24 5 9 12 25 15 35 10
31 37 33 63 3 l23 -27 48 39 c26 21 69 55 95 77 l49 38 -54 32 c-115 71 -127
79 -122 87 3 4 -2 8 -10 8 -18 0 -22 16 -5 22 6 2 40 -11 77 -29 36 -17 69
-30 73 -27 5 2 25 5 46 6 48 1 113 36 113 60 0 10 -9 27 -20 38 -26 26 -25 30
9 30 23 0 37 10 62 42 19 24 38 46 44 50 22 16 70 7 115 -22 64 -41 97 -46
140 -19 20 13 30 24 23 26 -7 3 -13 9 -13 15 0 11 -51 62 -97 96 -23 18 -25
21 -9 22 18 0 19 1 1 20 -10 11 -15 23 -11 27 4 4 11 1 16 -7 8 -12 10 -12 10
-1 0 9 8 11 24 7 l23 -6 -1 105 c0 59 -5 105 -11 105 -5 0 -4 5 3 12 17 17 15
28 -7 28 -23 0 -38 50 -22 77 10 19 16 12 23 -32 2 -11 12 -21 23 -23 16 -2
17 -1 6 7 -10 7 -12 13 -5 23 6 7 12 38 13 68 1 30 4 78 5 105 2 28 4 62 5 77
0 15 15 43 32 63 28 32 34 34 70 29 46 -8 109 3 109 18 0 7 -22 9 -67 6 -52
-4 -63 -3 -45 5 25 12 29 32 7 41 -8 3 -14 9 -13 13 3 12 -25 83 -33 83 -4 0
-14 18 -23 40 -11 28 -20 38 -31 34 -8 -4 -15 -1 -15 4 0 6 -15 12 -32 14 -25
2 -32 7 -30 21 2 9 -4 20 -13 23 -10 4 -13 13 -10 25 5 15 1 19 -18 19 -20 0
-24 4 -20 20 3 11 -4 30 -16 46 -12 15 -21 21 -21 15 0 -6 -10 -3 -22 9 -25
23 -48 26 -67 8 -10 -11 -10 -7 -2 15 6 16 9 41 6 56 -4 21 3 35 28 61 17 19
26 30 20 26 -17 -10 -16 6 2 30 14 19 14 19 15 -1 1 -11 4 -14 7 -7 2 6 13 12
23 12 14 0 17 -5 13 -21 -6 -21 -6 -21 22 -3 22 14 32 16 56 7 20 -8 32 -8 44
1 17 12 47 136 33 136 -4 0 -8 18 -8 40 0 29 -4 40 -15 40 -8 0 -15 5 -15 12
0 6 -6 19 -13 27 -9 10 -11 25 -6 41 4 16 7 19 8 8 1 -10 5 -18 10 -18 11 0
24 31 16 38 -3 3 -5 -1 -5 -8 0 -10 -3 -11 -11 -3 -13 13 1 44 34 81 11 12 16
22 10 22 -14 0 -56 -65 -114 -178 -27 -52 -53 -99 -58 -106 -13 -16 -79 -134
-97 -175 -8 -18 -13 -40 -10 -48 5 -11 2 -13 -9 -9 -9 3 -13 2 -10 -3 3 -5 1
-12 -5 -16 -6 -4 -5 -13 2 -25 7 -11 8 -23 4 -27 -5 -4 -11 -2 -13 5 -3 6 -8
12 -13 12 -4 0 -38 -60 -75 -132 -60 -120 -85 -163 -85 -146 0 14 56 128 121
250 74 135 87 159 148 264 19 33 59 108 90 167 32 60 74 132 95 160 22 29 31
45 21 37 -22 -18 -123 -143 -157 -193 -21 -31 -27 -35 -32 -21 -4 9 -4 19 -1
22 3 3 5 -1 5 -9 1 -8 12 9 26 37 13 29 35 62 47 75 37 38 93 114 78 105 -9
-6 -12 -5 -10 3 3 7 7 11 10 9 11 -6 39 25 39 43 0 11 5 19 10 19 6 0 8 12 5
28 -5 23 -4 24 5 9 6 -9 8 -27 5 -40 -5 -16 -4 -18 3 -8 5 7 14 11 20 7 6 -3
12 -1 14 6 9 25 102 29 126 4 16 -18 16 -18 -6 -7 -13 7 -28 10 -35 7 -7 -2
-5 -5 4 -5 9 -1 19 -11 23 -23 10 -38 6 -44 -12 -22 -10 11 -31 24 -47 28 -17
4 -27 4 -22 0 4 -4 -7 -24 -25 -43 -18 -19 -25 -29 -16 -22 24 18 76 7 122
-24 20 -14 41 -25 45 -25 5 0 24 -15 42 -33 19 -18 45 -41 58 -50 23 -16 25
-15 38 11 9 16 12 40 9 57 -5 23 -3 26 5 15 8 -11 9 -9 3 10 -4 14 -7 36 -6
50 1 22 0 21 -13 -8 -9 -20 -19 -31 -26 -26 -8 4 -9 0 -4 -16 5 -15 4 -20 -4
-16 -6 4 -11 19 -11 34 0 19 -3 23 -9 14 -8 -13 -12 6 -25 108 -5 44 -6 45
-16 30 -8 -12 -10 -11 -10 7 0 20 -66 110 -79 106 -3 0 -5 3 -4 8 2 5 -1 9 -6
9 -5 0 -12 8 -15 18 -3 9 -4 3 -2 -15 1 -18 -1 -30 -6 -27 -4 3 -8 10 -8 17 0
6 -26 39 -59 72 -32 33 -71 74 -87 90 -76 78 -169 136 -249 156 -41 10 -259
41 -305 43 -14 0 -33 9 -43 19 -10 10 -24 17 -30 14 -7 -2 -18 1 -24 8 -18 20
2 32 82 50 77 18 141 14 250 -16 39 -10 89 -23 112 -29 48 -12 140 -71 198
-127 83 -81 172 -182 166 -189 -3 -4 2 -4 13 0 14 5 17 2 12 -9 -3 -9 -2 -13
4 -10 6 3 10 -2 10 -12 0 -20 29 -66 30 -47 0 16 -55 125 -84 163 -14 18 -35
39 -48 45 -23 12 -131 146 -123 154 2 3 -2 11 -10 19 -8 8 -15 20 -15 26 0 7
4 6 10 -3 5 -8 10 -10 10 -5 0 19 -18 38 -29 31 -7 -5 -8 -1 -4 10 4 11 3 15
-5 10 -6 -3 -14 -1 -18 5 -4 8 -3 9 4 5 30 -18 -1 57 -40 98 -29 30 -37 21
-17 -17 l12 -22 -23 20 c-25 21 -25 22 -3 -32 4 -11 -4 -6 -22 11 -27 27 -29
27 -42 10 -14 -19 -15 -19 -32 14 -7 12 -30 34 -53 48 -23 14 -64 49 -93 78
-57 57 -96 90 -141 122 -83 59 -133 91 -166 109 -20 10 -35 22 -32 26 2 4 23
-3 47 -16 23 -12 53 -26 67 -30 14 -4 35 -19 48 -33 17 -18 26 -22 35 -13 8 8
7 11 -5 11 -18 0 -44 27 -34 37 3 4 13 -2 21 -13 10 -14 18 -17 30 -9 17 10
21 30 7 30 -4 0 -21 12 -37 27 -16 15 -43 32 -59 39 -17 6 -48 19 -69 30 -20
10 -44 16 -52 13 -8 -4 -15 -1 -15 5 0 6 -9 11 -20 11 -11 0 -20 -5 -20 -10 0
-6 -3 -9 -7 -9 -20 3 -26 -2 -13 -11 13 -8 13 -10 -2 -10 -9 0 -24 8 -34 18
-17 16 -108 17 -1586 20 l-1568 2 0 -855z m3364 777 c2 -4 -7 -8 -22 -9 -24
-2 -24 -1 -7 7 11 5 21 9 22 9 1 1 4 -3 7 -7z m-239 -22 c3 -5 -1 -10 -9 -10
-9 0 -16 5 -16 10 0 6 4 10 9 10 6 0 13 -4 16 -10z m115 -12 c44 -16 90 -48
70 -48 -9 0 -2 -11 17 -27 81 -72 109 -93 123 -93 9 0 11 3 5 8 -18 13 -14 40
6 35 10 -3 15 -11 12 -19 -3 -8 0 -14 7 -14 11 0 50 -36 50 -46 0 -2 -13 5
-29 14 -30 17 -58 9 -31 -8 8 -6 10 -10 4 -10 -11 0 -115 77 -162 120 -12 12
-38 24 -57 27 -19 3 -32 9 -29 14 3 5 -2 9 -12 9 -13 0 -14 3 -5 14 10 12 8
15 -10 18 -12 2 -25 9 -27 17 -5 15 3 14 68 -11z m140 -66 c0 -4 13 -13 29
-20 20 -9 29 -20 29 -36 0 -17 -5 -23 -14 -19 -8 3 -14 11 -14 19 0 8 -6 14
-13 14 -18 0 -49 34 -40 43 9 9 23 9 23 -1z m-305 -24 c25 -12 45 -28 45 -35
0 -7 11 -13 24 -13 14 0 28 -4 31 -10 9 -15 -29 -12 -61 5 -16 8 -38 15 -48
15 -20 0 -20 0 0 -15 10 -8 25 -15 32 -15 20 0 44 -27 32 -35 -6 -4 -5 -12 4
-21 18 -17 38 -18 54 -2 9 9 12 8 12 -4 0 -18 -40 -32 -54 -18 -6 6 -19 10
-30 10 -12 0 -30 7 -40 15 -11 8 -25 15 -30 15 -6 0 -4 -5 4 -10 8 -5 11 -10
5 -10 -5 0 -25 16 -44 35 -19 20 -41 33 -48 31 -7 -3 -13 1 -13 9 0 8 9 15 20
15 11 0 20 -5 20 -10 0 -6 8 -5 19 2 11 7 18 15 15 19 -2 4 0 10 6 14 5 3 10
1 10 -6 0 -7 3 -9 7 -6 3 4 -2 16 -12 27 -23 26 -16 25 40 -2z m146 -96 c-7
-2 -18 1 -23 6 -8 8 -4 9 13 5 13 -4 18 -8 10 -11z m36 -18 c-3 -3 -12 -4 -19
-1 -8 3 -5 6 6 6 11 1 17 -2 13 -5z m-2093 -19 c42 -32 -21 -44 -199 -36 -27
1 -76 -1 -109 -5 -65 -7 -70 6 -9 24 108 31 285 41 317 17z m2271 -83 c27 -19
43 -37 39 -44 -5 -8 -11 -6 -19 6 -11 14 -13 15 -18 1 -4 -10 2 -17 18 -21 14
-3 25 -12 25 -20 0 -11 -60 21 -100 53 -2 2 2 8 9 12 11 7 11 10 0 17 -8 5
-20 17 -28 27 -12 16 -12 17 7 10 11 -5 41 -23 67 -41z m-2086 12 c9 -8 -53
-24 -92 -25 -23 0 -82 -10 -132 -23 -85 -22 -115 -24 -115 -7 0 10 33 26 85
42 67 21 234 30 254 13z m69 -1 c-10 -2 -28 -2 -40 0 -13 2 -5 4 17 4 22 1 32
-1 23 -4z m132 -3 c0 -5 -9 -10 -20 -10 -11 0 -20 5 -20 10 0 6 9 10 20 10 11
0 20 -4 20 -10z m15 -62 c-43 -35 -114 -72 -122 -65 -12 13 40 57 91 76 28 10
53 17 55 15 2 -2 -9 -14 -24 -26z m1239 -3 c3 -8 1 -15 -3 -15 -5 0 -11 7 -15
15 -3 8 -1 15 3 15 5 0 11 -7 15 -15z m-1799 -5 c8 -13 -15 -13 -35 0 -12 8
-11 10 7 10 12 0 25 -4 28 -10z m1845 -10 c0 -5 -5 -10 -11 -10 -5 0 -7 5 -4
10 3 6 8 10 11 10 2 0 4 -4 4 -10z m557 -26 c28 -8 61 -14 74 -14 14 0 19 -4
14 -9 -14 -12 -147 -23 -140 -10 4 5 11 7 16 4 5 -4 9 -4 9 -1 0 3 -18 15 -40
26 -68 35 -50 36 67 4z m-487 -4 c0 -5 -4 -10 -10 -10 -5 0 -10 5 -10 10 0 6
5 10 10 10 6 0 10 -4 10 -10z m-1555 -30 c0 -8 -11 -17 -24 -18 -13 -2 -41
-15 -62 -29 -32 -21 -68 -29 -216 -50 -195 -27 -315 -34 -323 -18 -3 6 22 13
60 17 36 4 146 27 245 53 250 64 320 74 320 45z m1585 10 c0 -5 -4 -10 -10
-10 -5 0 -10 5 -10 10 0 6 5 10 10 10 6 0 10 -4 10 -10z m97 -56 c-7 -7 -37 7
-37 17 0 6 9 5 21 -1 11 -7 19 -14 16 -16z m-2487 -88 c0 -9 -30 -14 -35 -6
-4 6 3 10 14 10 12 0 21 -2 21 -4z m640 -106 c0 -16 -82 -53 -125 -56 -22 -2
-58 -7 -80 -12 -33 -6 -39 -11 -37 -29 2 -18 -6 -24 -60 -40 -35 -11 -62 -25
-61 -31 2 -7 -10 -12 -28 -12 -31 0 -89 -27 -89 -42 0 -4 -6 -8 -14 -8 -7 0
-19 -7 -27 -16 -8 -9 -21 -13 -35 -10 -12 3 -37 -2 -56 -11 -62 -31 -68 -33
-90 -33 -13 0 -30 4 -38 10 -12 8 -12 10 3 16 9 3 17 15 17 25 0 15 -7 19 -40
19 -22 0 -40 -4 -40 -10 0 -5 -10 -10 -23 -10 -13 0 -27 -3 -30 -7 -9 -8 -107
-10 -107 -2 0 4 9 9 21 12 12 3 18 10 15 16 -4 6 5 18 19 27 17 11 25 25 25
44 0 22 6 29 40 40 22 7 40 17 40 22 0 4 27 8 60 8 45 0 65 5 79 19 22 22 110
32 253 29 54 -1 100 1 104 5 12 12 24 8 24 -8 0 -8 5 -15 11 -15 6 0 9 7 5 15
-10 26 23 47 63 40 20 -3 56 -1 81 4 62 12 120 13 120 1z m2585 -30 c3 -6 -1
-7 -9 -4 -18 7 -21 14 -7 14 6 0 13 -4 16 -10z m-2681 -146 c29 -11 17 -20
-46 -33 -35 -7 -76 -17 -92 -22 -16 -5 -42 -9 -58 -9 -16 0 -38 -5 -49 -11
-11 -5 -30 -9 -42 -7 -40 6 62 47 128 51 33 3 78 12 100 20 22 9 41 16 42 17
1 0 8 -3 17 -6z m2629 -71 c-7 -2 -21 -2 -30 0 -10 3 -4 5 12 5 17 0 24 -2 18
-5z m-3354 -89 c9 -8 -55 -2 -74 6 -13 6 -5 7 25 3 25 -3 47 -7 49 -9z m3298
10 c-3 -3 -12 -4 -19 -1 -8 3 -5 6 6 6 11 1 17 -2 13 -5z m-3187 -38 c-13 -12
-52 -24 -140 -42 -14 -3 -32 -8 -40 -11 -8 -3 -22 -7 -30 -9 -8 -1 -32 -6 -52
-9 -25 -5 -38 -4 -38 3 0 6 -8 13 -18 16 -9 3 3 3 28 1 30 -3 38 -2 25 4 -21
8 -10 12 85 28 19 3 40 9 46 14 6 5 31 6 56 3 29 -4 48 -2 52 5 4 6 15 11 24
11 14 0 14 -2 2 -14z m470 10 c0 -2 -7 -6 -15 -10 -8 -3 -15 -1 -15 4 0 6 7
10 15 10 8 0 15 -2 15 -4z m-613 -12 c-3 -3 -12 -4 -19 -1 -8 3 -5 6 6 6 11 1
17 -2 13 -5z m3189 -19 c-9 -9 -16 -13 -16 -8 0 12 22 34 28 28 2 -2 -3 -11
-12 -20z m65 -22 c-12 -20 -14 -14 -5 12 4 9 9 14 11 11 3 -2 0 -13 -6 -23z
m638 -55 c-1 -31 -1 -31 -8 -8 -5 14 -6 28 -4 33 9 15 13 6 12 -25z m-673 -15
c-8 -15 -15 -25 -16 -21 0 12 23 58 27 54 3 -2 -2 -17 -11 -33z m-35 -74 c-12
-19 -21 -30 -21 -26 0 12 33 67 38 63 1 -2 -6 -19 -17 -37z m-3001 21 c0 -5
-7 -10 -16 -10 -8 0 -12 5 -9 10 3 6 10 10 16 10 5 0 9 -4 9 -10z m2970 -81
c-7 -11 -14 -18 -17 -15 -3 3 0 12 7 21 18 21 23 19 10 -6z m-36 -59 c-10 -16
-19 -28 -21 -26 -5 5 22 56 30 56 5 0 0 -13 -9 -30z m-3111 -57 c-7 -2 -19 -2
-25 0 -7 3 -2 5 12 5 14 0 19 -2 13 -5z m3467 -17 c0 -2 -7 -17 -15 -32 -16
-30 -19 -25 -9 14 5 18 24 33 24 18z m-110 -125 c-5 -11 -15 -23 -21 -27 -6
-3 -3 5 6 20 20 30 30 35 15 7z m-86 -148 c-98 -166 -123 -201 -219 -301 -91
-94 -175 -198 -175 -215 0 -4 -5 -5 -10 -2 -13 8 40 79 144 193 128 141 159
181 230 294 36 59 69 115 73 123 3 9 8 14 10 11 3 -2 -21 -49 -53 -103z m45 5
c-7 -12 -12 -27 -10 -33 1 -5 -3 -5 -9 2 -10 9 -8 17 6 36 23 30 30 27 13 -5z
m-29 -56 c0 -10 -7 -27 -15 -38 -8 -12 -11 -25 -7 -29 4 -5 1 -5 -5 -1 -18 10
-16 43 3 50 10 4 14 14 11 26 -3 11 -1 18 4 14 5 -3 9 -13 9 -22z m110 -12 c0
-5 -4 -10 -10 -10 -5 0 -10 5 -10 10 0 6 5 10 10 10 6 0 10 -4 10 -10z m-156
-58 c3 -5 -1 -9 -9 -9 -8 0 -12 4 -9 9 3 4 7 8 9 8 2 0 6 -4 9 -8z m75 -226
c15 -18 -11 -46 -44 -46 -29 0 -50 31 -33 48 16 16 63 15 77 -2z m-114 -101
c-15 -25 -32 -45 -38 -44 -8 0 -8 2 1 6 6 2 12 10 12 18 0 7 6 18 14 24 8 7
18 27 22 44 5 20 9 26 12 15 2 -10 -9 -38 -23 -63z m-64 38 c-13 -10 -31 -25
-41 -34 -9 -9 -46 -33 -81 -54 -35 -21 -90 -55 -121 -76 -31 -22 -65 -39 -75
-39 -12 0 -8 5 12 16 16 8 37 21 45 28 27 24 120 86 127 86 5 0 37 20 73 44
63 43 107 63 61 29z m-16 -83 c-3 -5 -16 -15 -28 -21 -19 -9 -19 -8 3 10 28
23 34 26 25 11z m-64 -18 c-11 -4 -11 -6 0 -14 10 -6 7 -7 -10 -3 -16 5 -21 4
-17 -4 4 -6 0 -11 -9 -11 -9 0 -35 -9 -58 -20 l-42 -21 24 21 c13 11 29 20 36
20 7 0 15 4 17 8 4 12 62 40 68 34 3 -3 -1 -7 -9 -10z m69 -51 c-16 -33 -34
-62 -40 -66 -6 -4 -8 -15 -5 -26 4 -11 3 -18 -2 -17 -4 2 -28 -18 -52 -45 -24
-26 -46 -46 -48 -43 -2 2 10 23 27 47 17 24 38 55 48 69 9 14 19 27 23 30 3 3
18 29 33 58 14 28 31 52 36 52 6 0 -3 -27 -20 -59z m-41 15 c-2 -2 -99 -49
-216 -104 -117 -56 -223 -110 -235 -122 l-23 -21 29 7 c22 5 28 4 24 -7 -3 -8
-12 -14 -20 -14 -8 0 -22 -6 -30 -13 -8 -6 -18 -9 -21 -5 -4 3 -7 -2 -7 -11 0
-13 5 -16 18 -11 9 4 26 9 37 12 19 4 19 4 -1 -9 -46 -29 -79 -52 -89 -62 -5
-6 -31 -21 -57 -33 -27 -13 -48 -27 -48 -33 0 -5 -9 -10 -21 -10 -11 0 -18 -4
-15 -9 3 -4 -13 -14 -35 -21 -23 -8 -43 -20 -46 -27 -3 -7 -13 -13 -22 -13
-27 0 -95 -27 -99 -39 -2 -6 -12 -11 -23 -11 -10 0 -19 -4 -19 -10 0 -5 -7
-10 -15 -10 -8 0 -36 -11 -63 -25 -76 -40 -181 -75 -226 -75 -30 0 -37 -3 -26
-10 12 -8 11 -10 -7 -10 -13 0 -23 6 -23 13 0 14 54 41 120 60 25 8 67 30 93
50 26 20 74 50 107 68 33 17 60 36 60 40 0 13 4 14 -121 -45 -63 -29 -149 -65
-191 -79 -42 -14 -90 -33 -107 -41 -33 -18 -65 -21 -56 -7 12 20 114 71 162
81 27 6 81 27 119 47 180 93 307 153 351 166 27 8 71 29 98 46 27 17 56 31 66
31 9 0 28 9 42 20 15 12 56 38 92 59 38 23 61 41 53 44 -9 4 -8 6 3 6 9 1 27
9 40 19 13 10 30 17 37 16 6 -1 18 -2 25 -3 6 -1 1 -7 -12 -12 -13 -5 -21 -12
-18 -15 3 -3 25 4 49 15 43 20 43 25 1 22 -11 -1 -24 3 -28 9 -4 7 5 9 29 6
20 -2 38 0 41 5 4 5 11 9 18 9 6 0 2 -7 -9 -15 -30 -22 -8 -18 44 10 26 14 52
25 59 25 6 0 13 3 15 8 4 9 92 51 97 46 2 -2 2 -6 0 -8z m51 -91 c0 -8 7 -15
15 -15 8 0 15 -5 15 -11 0 -6 9 -8 21 -4 20 7 20 6 2 -15 -15 -17 -19 -18 -21
-5 -4 19 -32 20 -32 0 0 -8 -4 -15 -9 -15 -6 0 -16 -12 -23 -27 -7 -15 -22
-29 -32 -31 -19 -4 -19 -3 -3 22 21 31 21 37 3 30 -8 -3 -17 -13 -19 -22 -4
-15 -5 -15 -6 0 -1 24 38 58 66 58 13 0 23 5 23 10 0 6 -7 10 -15 10 -9 0 -12
6 -9 15 4 8 10 15 15 15 5 0 9 -7 9 -15z m-100 -7 c0 -4 -4 -8 -9 -8 -6 0 -12
4 -15 8 -3 5 1 9 9 9 8 0 15 -4 15 -9z m-29 -36 c-13 -25 -51 -57 -51 -44 0 7
3 12 8 12 10 1 45 50 34 50 -4 0 -18 -9 -30 -20 -12 -11 -25 -20 -31 -20 -12
0 -23 -29 -15 -41 3 -5 11 -9 17 -8 9 0 9 2 0 6 -7 2 -13 9 -13 15 0 6 6 6 15
-2 13 -10 12 -15 -3 -36 -9 -13 -21 -24 -27 -24 -5 0 -4 5 3 12 14 14 16 28 4
28 -9 0 -99 -66 -117 -86 -5 -6 -32 -28 -60 -50 -27 -21 -52 -41 -55 -44 -13
-13 -72 -51 -92 -60 -13 -6 -47 -24 -77 -40 -30 -16 -56 -28 -59 -26 -2 2 29
25 67 51 39 26 83 59 98 74 16 14 41 36 58 49 16 12 48 38 70 57 22 20 60 50
85 68 25 19 44 41 44 50 -1 10 4 17 11 17 7 0 18 7 25 15 7 8 26 15 42 15 19
0 27 4 22 11 -4 8 0 8 15 0 16 -9 19 -16 12 -29z m-157 -47 c-4 -8 -16 -15
-28 -15 -20 0 -20 1 4 14 14 8 26 14 27 15 1 1 0 -6 -3 -14z m310 -30 c-35
-26 -45 -18 -17 15 11 13 21 16 27 10 7 -7 3 -15 -10 -25z m-134 -49 c0 -3 -4
-8 -10 -11 -5 -3 -10 -1 -10 4 0 6 5 11 10 11 6 0 10 -2 10 -4z m-150 -26 c-8
-5 -19 -10 -25 -10 -5 0 -3 5 5 10 8 5 20 10 25 10 6 0 3 -5 -5 -10z m-225
-180 c-3 -5 -10 -10 -16 -10 -5 0 -9 5 -9 10 0 6 7 10 16 10 8 0 12 -4 9 -10z
m145 -4 c0 -3 -4 -8 -10 -11 -5 -3 -10 -1 -10 4 0 6 5 11 10 11 6 0 10 -2 10
-4z m703 -63 c3 -5 7 -21 8 -38 3 -25 0 -31 -24 -39 -24 -9 -30 -7 -38 7 -6 9
-15 17 -20 17 -14 0 -39 26 -33 33 3 3 12 3 20 0 8 -3 17 2 20 11 6 16 59 23
67 9z m-1123 -27 c0 -3 -4 -8 -10 -11 -5 -3 -10 -1 -10 4 0 6 5 11 10 11 6 0
10 -2 10 -4z m-2620 -81 c-7 -9 -15 -13 -18 -10 -3 2 1 11 8 20 7 9 15 13 18
10 3 -2 -1 -11 -8 -20z m2720 -4 c0 -5 -7 -12 -16 -15 -14 -5 -15 -4 -4 9 14
17 20 19 20 6z m-258 -13 c-11 -11 -53 -28 -116 -48 -49 -16 -16 7 49 34 67
28 85 32 67 14z m-442 -15 c0 -7 5 -13 11 -13 5 0 7 -4 4 -10 -8 -13 -65 -13
-65 1 0 5 -5 7 -11 3 -15 -9 -209 -13 -209 -4 0 9 51 20 124 26 28 3 52 6 53
8 2 2 23 2 48 2 29 -1 45 -5 45 -13z m650 -7 c0 -2 -7 -7 -16 -10 -8 -3 -12
-2 -9 4 6 10 25 14 25 6z m-954 -17 c5 -8 0 -10 -17 -6 -14 4 -37 0 -53 -8
-35 -18 -58 -7 -25 11 30 16 85 18 95 3z m561 -145 c-3 -3 -12 -4 -19 -1 -8 3
-5 6 6 6 11 1 17 -2 13 -5z m-1407 -58 c0 -3 -4 -8 -10 -11 -5 -3 -10 -1 -10
4 0 6 5 11 10 11 6 0 10 -2 10 -4z m1690 -286 c0 -5 -7 -7 -15 -4 -8 4 -15 8
-15 10 0 2 7 4 15 4 8 0 15 -4 15 -10z m140 -14 c0 -3 -4 -8 -10 -11 -5 -3
-10 -1 -10 4 0 6 5 11 10 11 6 0 10 -2 10 -4z m-156 -205 c-6 -6 -24 19 -24
34 1 6 7 1 15 -9 8 -11 12 -22 9 -25z m633 7 c-3 -8 -6 -5 -6 6 -1 11 2 17 5
13 3 -3 4 -12 1 -19z m-642 -128 c3 -5 1 -10 -4 -10 -6 0 -11 5 -11 10 0 6 2
10 4 10 3 0 8 -4 11 -10z m101 -143 c0 -15 -5 -26 -11 -25 -9 3 -11 22 -6 68
3 27 19 -12 17 -43z m-10 -84 c-11 -11 -17 4 -9 23 7 18 8 18 11 1 2 -10 1
-21 -2 -24z m14 -79 c0 -8 -5 -14 -11 -14 -7 0 -8 -7 -4 -17 18 -45 18 -48 5
-36 -17 16 -20 106 -3 91 7 -6 13 -17 13 -24z m933 -364 c20 -24 18 -24 -17
-7 -14 8 -23 17 -19 20 10 11 17 8 36 -13z m-1078 -248 c-3 -3 -11 0 -18 7 -9
10 -8 11 6 5 10 -3 15 -9 12 -12z m988 -42 c3 -11 1 -18 -4 -14 -5 3 -9 12 -9
20 0 20 7 17 13 -6z m-38 -10 c3 -5 1 -10 -4 -10 -6 0 -11 5 -11 10 0 6 2 10
4 10 3 0 8 -4 11 -10z m-1405 -40 c0 -5 -4 -10 -10 -10 -5 0 -10 5 -10 10 0 6
5 10 10 10 6 0 10 -4 10 -10z m1478 -8 c6 -18 -15 -14 -22 4 -4 10 -1 14 6 12
6 -2 14 -10 16 -16z m-53 -3 c11 -17 -1 -21 -15 -4 -8 9 -8 15 -2 15 6 0 14
-5 17 -11z m40 -40 c11 -17 -1 -21 -15 -4 -8 9 -8 15 -2 15 6 0 14 -5 17 -11z
m-920 -19 c3 -5 1 -10 -4 -10 -6 0 -11 5 -11 10 0 6 2 10 4 10 3 0 8 -4 11
-10z m1141 -77 c-10 -10 -19 5 -10 18 6 11 8 11 12 0 2 -7 1 -15 -2 -18z"/>
<path d="M3250 4906 c0 -2 9 -6 20 -9 11 -3 18 -1 14 4 -5 9 -34 13 -34 5z"/>
<path d="M3078 2553 c7 -3 16 -2 19 1 4 3 -2 6 -13 5 -11 0 -14 -3 -6 -6z"/>
<path d="M2595 2290 c-8 -13 5 -13 25 0 13 8 13 10 -2 10 -9 0 -20 -4 -23 -10z"/>
<path d="M2633 2273 c-35 -18 -43 -33 -18 -33 8 0 15 4 15 9 0 5 10 11 22 13
12 2 23 9 26 16 5 16 -5 14 -45 -5z"/>
<path d="M2550 2260 c0 -5 5 -10 10 -10 6 0 10 5 10 10 0 6 -4 10 -10 10 -5 0
-10 -4 -10 -10z"/>
<path d="M4176 5016 c27 -18 70 -53 95 -77 58 -56 92 -76 97 -60 3 9 7 9 18 0
10 -8 14 -8 14 0 0 6 5 11 11 11 8 0 8 -5 -1 -15 -7 -8 -19 -15 -27 -15 -13 0
-13 -3 -3 -15 7 -8 16 -12 21 -9 5 3 19 -2 31 -10 31 -22 41 -20 26 4 -10 15
-10 22 0 32 6 6 14 9 18 6 4 -5 20 -84 26 -135 2 -16 18 -17 18 -1 0 6 -5 27
-12 45 -9 24 -9 39 -2 51 6 10 8 26 3 37 -12 30 -10 67 2 63 7 -2 20 -32 31
-66 10 -35 23 -60 28 -57 6 4 10 0 10 -7 0 -26 25 -68 37 -63 7 2 15 -1 19 -7
5 -7 2 -8 -6 -3 -10 6 -12 4 -7 -9 4 -10 7 -21 7 -24 0 -4 4 -1 8 6 7 10 14 8
34 -8 29 -22 128 -29 128 -9 0 8 24 9 79 4 76 -7 79 -6 84 17 8 30 67 65 78
46 5 -7 9 58 9 145 0 119 -3 157 -12 157 -7 0 -14 -12 -15 -27 -2 -35 -27 -53
-74 -53 -33 0 -36 2 -32 21 3 12 20 30 37 40 31 19 27 19 -399 19 l-430 0 51
-34z m322 -162 c-3 -14 -5 -12 -10 9 -3 19 -2 25 4 19 6 -6 8 -18 6 -28z"/>
<path d="M3470 4846 c0 -2 7 -6 15 -10 8 -3 15 -1 15 4 0 6 -7 10 -15 10 -8 0
-15 -2 -15 -4z"/>
<path d="M4518 4815 c-7 -7 10 -64 24 -80 5 -5 4 4 -1 20 -5 17 -11 38 -13 48
-2 11 -6 16 -10 12z"/>
<path d="M4420 4806 c0 -2 7 -9 15 -16 12 -10 15 -10 15 4 0 9 -7 16 -15 16
-8 0 -15 -2 -15 -4z"/>
<path d="M4666 4635 c-9 -26 -7 -32 5 -12 6 10 9 21 6 23 -2 3 -7 -2 -11 -11z"/>
<path d="M3760 4580 c0 -5 5 -10 11 -10 5 0 7 5 4 10 -3 6 -8 10 -11 10 -2 0
-4 -4 -4 -10z"/>
<path d="M3940 4570 c0 -5 5 -10 11 -10 5 0 7 5 4 10 -3 6 -8 10 -11 10 -2 0
-4 -4 -4 -10z"/>
<path d="M4285 4550 c16 -29 63 -95 85 -120 12 -14 34 -45 48 -70 39 -68 44
-73 54 -58 6 9 7 6 4 -8 -4 -11 0 -29 8 -40 23 -30 38 -6 30 47 -6 34 -9 39
-15 24 -7 -17 -8 -16 -8 7 -1 15 -5 30 -11 33 -5 3 -11 16 -11 28 -1 14 -4 9
-9 -13 -6 -28 -8 -30 -9 -10 -1 21 -3 22 -12 10 -9 -12 -10 -11 -6 8 3 12 1
20 -4 16 -5 -3 -9 1 -9 8 0 8 -8 24 -17 37 -47 61 -66 81 -76 81 -6 0 -19 8
-30 18 -15 12 -18 13 -12 2z"/>
<path d="M3540 4444 c58 -8 150 -8 150 -1 0 4 -39 6 -87 6 -49 -1 -77 -3 -63
-5z"/>
<path d="M4522 4325 c0 -16 2 -22 5 -12 2 9 2 23 0 30 -3 6 -5 -1 -5 -18z"/>
<path d="M4368 3964 c-5 -4 -8 -21 -7 -38 0 -30 0 -30 10 -7 11 27 8 57 -3 45z"/>
<path d="M4410 3660 c0 -5 5 -10 10 -10 6 0 10 5 10 10 0 6 -4 10 -10 10 -5 0
-10 -4 -10 -10z"/>
<path d="M3905 3301 c-3 -5 -1 -12 5 -16 5 -3 10 1 10 9 0 18 -6 21 -15 7z"/>
<path d="M3788 3233 c7 -3 16 -2 19 1 4 3 -2 6 -13 5 -11 0 -14 -3 -6 -6z"/>
<path d="M4180 2745 c-7 -9 -8 -15 -2 -15 5 0 12 7 16 15 3 8 4 15 2 15 -2 0
-9 -7 -16 -15z"/>
<path d="M4734 1123 c-12 -2 -35 -16 -53 -31 -24 -20 -33 -37 -37 -69 -3 -23
0 -44 6 -48 6 -4 7 1 3 11 -5 14 -3 16 11 11 14 -5 16 -3 11 12 -4 13 9 31 45
65 49 46 58 57 43 55 -5 -1 -17 -4 -29 -6z"/>
<path d="M4810 1096 c-74 -28 -95 -39 -83 -43 19 -7 89 16 115 37 27 23 17 24
-32 6z"/>
<path d="M3568 643 c6 -2 18 -2 25 0 6 3 1 5 -13 5 -14 0 -19 -2 -12 -5z"/>
<path d="M4785 320 c3 -5 12 -10 20 -10 8 0 17 5 20 10 4 6 -5 10 -20 10 -15
0 -24 -4 -20 -10z"/>
<path d="M4843 303 c9 -2 23 -2 30 0 6 3 -1 5 -18 5 -16 0 -22 -2 -12 -5z"/>
</g>
</svg>
